<svg width="275" height="48" viewBox="0 0 275 48" fill="none" xmlns="http://www.w3.org/2000/svg">
<mask id="mask0_325_176" style="mask-type:alpha" maskUnits="userSpaceOnUse" x="0" y="-1" width="276" height="49">
<path d="M10.7495 47.8162C8.69573 47.8162 6.88033 47.4442 5.30332 46.7009C3.72632 45.9202 2.49772 44.8608 1.61753 43.5226C0.737337 42.1841 0.297241 40.6416 0.297241 38.8944C0.297241 36.1063 1.32413 33.9503 3.37791 32.4261C5.46836 30.8648 8.329 30.0842 11.9598 30.0842C14.4537 30.0842 16.8008 30.4745 19.0013 31.2552V29.1363C19.0013 27.4635 18.4879 26.1995 17.461 25.3445C16.4341 24.4895 14.9304 24.062 12.95 24.062C11.7397 24.062 10.4378 24.2665 9.04413 24.6754C7.6505 25.0471 6.03682 25.6419 4.20309 26.4597L1.45249 20.8279C3.72632 19.787 5.89012 19.0064 7.9439 18.486C10.0344 17.9655 12.1248 17.7053 14.2153 17.7053C18.0661 17.7053 21.0551 18.6533 23.1822 20.5491C25.346 22.4078 26.4279 25.0471 26.4279 28.4671V47.3143H19.0013V45.251C17.8277 46.1434 16.5624 46.7938 15.2055 47.2028C13.8485 47.6115 12.3632 47.8162 10.7495 47.8162ZM7.4488 38.7271C7.4488 39.8424 7.92556 40.7345 8.8791 41.4038C9.83264 42.0356 11.0979 42.3514 12.6749 42.3514C13.9219 42.3514 15.0771 42.203 16.1407 41.9054C17.2043 41.5707 18.1578 41.0876 19.0013 40.4558V36.2177C18.0844 35.846 17.1309 35.5673 16.1407 35.3815C15.1505 35.1956 14.0869 35.1027 12.95 35.1027C11.2263 35.1027 9.8693 35.4374 8.8791 36.1063C7.92556 36.7382 7.4488 37.6118 7.4488 38.7271Z" fill="#7D75D8"/>
<path d="M31.3068 47.3143V8.28176L38.8433 6.99927V47.3143H31.3068Z" fill="#7D75D8"/>
<path d="M57.9404 47.8717C55.0798 47.8717 52.4759 47.2027 50.1288 45.8642C47.8182 44.5261 45.9845 42.7233 44.6274 40.4557C43.2703 38.188 42.5918 35.6416 42.5918 32.8164C42.5918 29.9912 43.2338 27.4447 44.5175 25.1772C45.8377 22.9096 47.6165 21.1066 49.8534 19.7684C52.0906 18.4301 54.5846 17.761 57.3352 17.761C60.0859 17.761 62.5247 18.4487 64.6517 19.8241C66.7789 21.1996 68.4475 23.0583 69.6578 25.4002C70.9046 27.7421 71.5284 30.4001 71.5284 33.374V35.3814H50.2935C50.6236 36.5337 51.1554 37.5746 51.889 38.5041C52.6592 39.4333 53.5945 40.1581 54.6945 40.6785C55.8314 41.199 57.0416 41.4592 58.3253 41.4592C59.609 41.4592 60.7827 41.2549 61.8462 40.8458C62.9465 40.4371 63.8815 39.8608 64.6517 39.1175L69.6027 43.6898C67.8424 45.1394 66.027 46.1989 64.1568 46.8681C62.3228 47.537 60.2507 47.8717 57.9404 47.8717ZM50.1836 29.9168H64.1017C63.8449 28.7644 63.368 27.7607 62.6712 26.9057C62.0113 26.0136 61.2042 25.3259 60.2507 24.8426C59.334 24.3222 58.307 24.0619 57.1702 24.0619C55.9964 24.0619 54.933 24.3036 53.9794 24.7868C53.0259 25.2701 52.2192 25.9578 51.5589 26.85C50.9355 27.705 50.4772 28.7273 50.1836 29.9168Z" fill="#7D75D8"/>
<path d="M70.0911 47.3143L81.0934 32.5377L70.3661 18.2629H79.113L85.4393 26.9059L91.7105 18.2629H100.182L89.6201 32.4262L100.843 47.3143H92.0407L85.2742 38.0578L78.5078 47.3143H70.0911Z" fill="#7D75D8"/>
<path d="M111.187 47.8162C109.133 47.8162 107.318 47.4442 105.741 46.7009C104.164 45.9202 102.935 44.8608 102.055 43.5226C101.175 42.1841 100.735 40.6416 100.735 38.8944C100.735 36.1063 101.762 33.9503 103.816 32.4261C105.906 30.8648 108.767 30.0842 112.397 30.0842C114.891 30.0842 117.239 30.4745 119.439 31.2552V29.1363C119.439 27.4635 118.925 26.1995 117.899 25.3445C116.872 24.4895 115.368 24.062 113.388 24.062C112.177 24.062 110.875 24.2665 109.482 24.6754C108.088 25.0471 106.474 25.6419 104.641 26.4597L101.89 20.8279C104.164 19.787 106.328 19.0064 108.381 18.486C110.472 17.9655 112.563 17.7053 114.653 17.7053C118.504 17.7053 121.493 18.6533 123.62 20.5491C125.784 22.4078 126.866 25.0471 126.866 28.4671V47.3143H119.439V45.251C118.265 46.1434 117 46.7938 115.643 47.2028C114.286 47.6115 112.801 47.8162 111.187 47.8162ZM107.887 38.7271C107.887 39.8424 108.363 40.7345 109.317 41.4038C110.27 42.0356 111.536 42.3514 113.113 42.3514C114.359 42.3514 115.515 42.203 116.578 41.9054C117.642 41.5707 118.595 41.0876 119.439 40.4558V36.2177C118.522 35.846 117.568 35.5673 116.578 35.3815C115.588 35.1956 114.524 35.1027 113.388 35.1027C111.664 35.1027 110.307 35.4374 109.317 36.1063C108.363 36.7382 107.887 37.6118 107.887 38.7271Z" fill="#7D75D8"/>
<path d="M131.745 47.3143V18.2629H139.281V20.6606C141.445 18.6904 144.122 17.7053 147.313 17.7053C149.55 17.7053 151.512 18.2072 153.199 19.2108C154.923 20.1774 156.262 21.5342 157.215 23.2814C158.169 24.9914 158.645 26.9988 158.645 29.3035V47.3143H151.109V30.4187C151.109 28.5229 150.577 27.0359 149.513 25.9579C148.45 24.8427 147.001 24.2851 145.168 24.2851C143.884 24.2851 142.747 24.5453 141.757 25.0657C140.767 25.549 139.941 26.2553 139.281 27.1846V47.3143H131.745Z" fill="#7D75D8"/>
<path d="M176.787 47.7044C174.073 47.7044 171.616 47.0355 169.415 45.697C167.215 44.3588 165.454 42.5746 164.134 40.3443C162.85 38.0767 162.209 35.5488 162.209 32.7607C162.209 29.9726 162.85 27.4634 164.134 25.233C165.454 22.9654 167.233 21.1811 169.47 19.88C171.707 18.5417 174.219 17.8726 177.007 17.8726C178.437 17.8726 179.812 18.077 181.133 18.486C182.453 18.8577 183.682 19.4153 184.819 20.1588V8.28176L192.355 6.99927V47.3143H184.929V44.9167C182.581 46.7753 179.868 47.7044 176.787 47.7044ZM177.997 41.1805C179.391 41.1805 180.656 40.9573 181.793 40.5113C182.966 40.0282 183.975 39.3219 184.819 38.3924V27.0731C183.975 26.2181 182.966 25.549 181.793 25.0657C180.619 24.5825 179.354 24.3408 177.997 24.3408C176.42 24.3408 174.99 24.7126 173.706 25.4561C172.459 26.1623 171.469 27.1661 170.735 28.4671C170.002 29.731 169.635 31.1622 169.635 32.7607C169.635 34.3591 170.002 35.7905 170.735 37.0543C171.469 38.318 172.459 39.3219 173.706 40.0652C174.99 40.8089 176.42 41.1805 177.997 41.1805Z" fill="#7D75D8"/>
<path d="M197.408 47.3142V18.2629H204.945V21.497C205.862 20.2331 206.962 19.2666 208.246 18.5974C209.529 17.9283 210.978 17.5938 212.592 17.5938C213.985 17.6309 215.031 17.854 215.727 18.2629V24.9542C215.177 24.6939 214.572 24.5081 213.912 24.3965C213.252 24.2479 212.574 24.1735 211.876 24.1735C210.41 24.1735 209.071 24.5452 207.861 25.2887C206.65 26.0322 205.679 27.0916 204.945 28.4671V47.3142H197.408Z" fill="#7D75D8"/>
<path d="M219.039 47.3143V18.263H226.576V47.3143H219.039ZM222.78 14.8058C221.607 14.8058 220.598 14.3784 219.754 13.5233C218.911 12.6684 218.489 11.6461 218.489 10.4565C218.489 9.22978 218.911 8.20752 219.754 7.3897C220.598 6.53469 221.607 6.10718 222.78 6.10718C223.99 6.10718 224.999 6.53469 225.806 7.3897C226.649 8.20752 227.071 9.22978 227.071 10.4565C227.071 11.6461 226.649 12.6684 225.806 13.5233C224.999 14.3784 223.99 14.8058 222.78 14.8058Z" fill="#7D75D8"/>
<path d="M240.777 47.8162C238.723 47.8162 236.908 47.4442 235.331 46.7009C233.754 45.9202 232.525 44.8608 231.645 43.5226C230.765 42.1841 230.324 40.6416 230.324 38.8944C230.324 36.1063 231.351 33.9503 233.405 32.4261C235.496 30.8648 238.356 30.0842 241.987 30.0842C244.481 30.0842 246.828 30.4745 249.029 31.2552V29.1363C249.029 27.4635 248.515 26.1995 247.488 25.3445C246.461 24.4895 244.958 24.062 242.977 24.062C241.767 24.062 240.465 24.2665 239.071 24.6754C237.678 25.0471 236.064 25.6419 234.23 26.4597L231.48 20.8279C233.754 19.787 235.917 19.0064 237.971 18.486C240.062 17.9655 242.152 17.7053 244.243 17.7053C248.093 17.7053 251.082 18.6533 253.209 20.5491C255.373 22.4078 256.455 25.0471 256.455 28.4671V47.3143H249.029V45.251C247.855 46.1434 246.59 46.7938 245.233 47.2028C243.876 47.6115 242.39 47.8162 240.777 47.8162ZM237.476 38.7271C237.476 39.8424 237.953 40.7345 238.906 41.4038C239.86 42.0356 241.125 42.3514 242.702 42.3514C243.949 42.3514 245.104 42.203 246.168 41.9054C247.231 41.5707 248.185 41.0876 249.029 40.4558V36.2177C248.112 35.846 247.158 35.5673 246.168 35.3815C245.178 35.1956 244.114 35.1027 242.977 35.1027C241.253 35.1027 239.897 35.4374 238.906 36.1063C237.953 36.7382 237.476 37.6118 237.476 38.7271Z" fill="#7D75D8"/>
<path fill-rule="evenodd" clip-rule="evenodd" d="M262.532 1.72313L262.068 4.58149C261.444 8.41624 258.479 11.4218 254.696 12.0535L251.876 12.5243L254.696 12.9951C258.479 13.6268 261.444 16.6324 262.068 20.4671L262.532 23.3255L262.997 20.4671C263.62 16.6324 266.585 13.6268 270.368 12.9951L273.188 12.5243L270.368 12.0535C266.585 11.4218 263.62 8.41624 262.997 4.58149L262.532 1.72313ZM261.637 4.50963L262.317 0.32666H262.747L263.427 4.50963C264.02 8.15732 266.841 11.0163 270.439 11.6171L274.566 12.3061V12.7425L270.439 13.4315C266.841 14.0323 264.02 16.8913 263.427 20.539L262.747 24.7219H262.317L261.637 20.539C261.045 16.8913 258.224 14.0323 254.625 13.4315L250.498 12.7425V12.3061L254.625 11.6171C258.224 11.0163 261.045 8.15732 261.637 4.50963Z" fill="white" stroke="#7D75D8" stroke-width="1.64112"/>
</mask>
<g mask="url(#mask0_325_176)">
<path d="M-1.35303 -19.543H293.477V74.5531H-1.35303V-19.543Z" fill="url(#paint0_linear_325_176)"/>
</g>
<defs>
<linearGradient id="paint0_linear_325_176" x1="30.4507" y1="27.5051" x2="280.208" y2="5.02764" gradientUnits="userSpaceOnUse">
<stop offset="0.671875" stop-color="white"/>
<stop offset="0.90625" stop-color="white"/>
<stop offset="1" stop-color="white"/>
</linearGradient>
</defs>
</svg>
