<svg width="475" height="82" viewBox="0 0 475 82" fill="none" xmlns="http://www.w3.org/2000/svg">
<mask id="mask0_309_396" style="mask-type:alpha" maskUnits="userSpaceOnUse" x="0" y="-1" width="476" height="83">
<path d="M18.5673 81.686C15.0199 81.686 11.8842 81.0505 9.16029 79.7807C6.43638 78.447 4.31425 76.6372 2.79392 74.3511C1.27359 72.0645 0.513428 69.4294 0.513428 66.4446C0.513428 61.6815 2.28714 57.9984 5.83458 55.3946C9.44535 52.7274 14.3865 51.3938 20.6578 51.3938C24.9654 51.3938 29.0196 52.0606 32.8204 53.3943V49.7744C32.8204 46.9167 31.9336 44.7575 30.1599 43.2969C28.3862 41.8363 25.7889 41.106 22.3682 41.106C20.2777 41.106 18.0289 41.4552 15.6217 42.1538C13.2145 42.7888 10.4273 43.8049 7.25988 45.202L2.50886 35.581C6.43638 33.8029 10.1739 32.4693 13.7213 31.5802C17.3321 30.6911 20.9429 30.2466 24.5536 30.2466C31.2051 30.2466 36.3679 31.866 40.042 35.1047C43.7795 38.28 45.6482 42.7888 45.6482 48.6313V80.8285H32.8204V77.3037C30.7934 78.8283 28.6078 79.9394 26.264 80.6382C23.9202 81.3364 21.3546 81.686 18.5673 81.686ZM12.8661 66.1587C12.8661 68.0641 13.6896 69.5881 15.3366 70.7314C16.9837 71.8109 19.1691 72.3503 21.8931 72.3503C24.0468 72.3503 26.0423 72.0967 27.8794 71.5883C29.7165 71.0167 31.3635 70.1914 32.8204 69.1119V61.8719C31.2368 61.237 29.5897 60.7608 27.8794 60.4433C26.169 60.1259 24.332 59.9671 22.3682 59.9671C19.3908 59.9671 17.047 60.5388 15.3366 61.6815C13.6896 62.761 12.8661 64.2534 12.8661 66.1587Z" fill="#7D75D8"/>
<path d="M54.0754 80.8285V14.148L67.093 11.957V80.8285H54.0754Z" fill="#7D75D8"/>
<path d="M100.079 81.7809C95.1378 81.7809 90.6402 80.6381 86.586 78.3515C82.595 76.0655 79.4277 72.9858 77.0837 69.1119C74.7396 65.238 73.5676 60.8878 73.5676 56.0614C73.5676 51.235 74.6765 46.8849 76.8938 43.0111C79.1741 39.1373 82.2467 36.0573 86.1104 33.7711C89.9747 31.4849 94.2824 30.3418 99.0336 30.3418C103.785 30.3418 107.997 31.5167 111.671 33.8663C115.345 36.216 118.228 39.3913 120.318 43.3922C122.472 47.3929 123.549 51.9336 123.549 57.014V60.4433H86.8705C87.4408 62.4119 88.3592 64.1901 89.6265 65.778C90.9568 67.3653 92.5723 68.6035 94.4723 69.4926C96.436 70.3817 98.5264 70.8262 100.744 70.8262C102.961 70.8262 104.988 70.4772 106.825 69.7784C108.726 69.0802 110.341 68.0957 111.671 66.8258L120.223 74.6369C117.182 77.1133 114.047 78.9232 110.816 80.0665C107.648 81.2092 104.069 81.7809 100.079 81.7809ZM86.6807 51.108H110.721C110.278 49.1394 109.454 47.4247 108.25 45.9641C107.11 44.4399 105.716 43.2651 104.069 42.4396C102.486 41.5505 100.712 41.1059 98.7485 41.1059C96.7211 41.1059 94.8842 41.5188 93.2372 42.3443C91.5902 43.1699 90.1967 44.3447 89.0562 45.8688C87.9795 47.3294 87.1878 49.0759 86.6807 51.108Z" fill="#7D75D8"/>
<path d="M121.066 80.8286L140.071 55.5853L121.541 31.1992H136.65L147.577 45.9642L158.409 31.1992H173.042L154.798 55.3947L174.183 80.8286H158.979L147.292 65.0155L135.604 80.8286H121.066Z" fill="#7D75D8"/>
<path d="M192.051 81.686C188.503 81.686 185.367 81.0505 182.644 79.7807C179.92 78.447 177.797 76.6372 176.277 74.3511C174.757 72.0645 173.997 69.4294 173.997 66.4446C173.997 61.6815 175.77 57.9984 179.318 55.3946C182.929 52.7274 187.87 51.3938 194.141 51.3938C198.449 51.3938 202.503 52.0606 206.304 53.3943V49.7744C206.304 46.9167 205.417 44.7575 203.643 43.2969C201.869 41.8363 199.272 41.106 195.851 41.106C193.761 41.106 191.512 41.4552 189.105 42.1538C186.698 42.7888 183.91 43.8049 180.743 45.202L175.992 35.581C179.92 33.8029 183.657 32.4693 187.204 31.5802C190.815 30.6911 194.426 30.2466 198.037 30.2466C204.688 30.2466 209.851 31.866 213.525 35.1047C217.262 38.28 219.132 42.7888 219.132 48.6313V80.8285H206.304V77.3037C204.276 78.8283 202.091 79.9394 199.747 80.6382C197.404 81.3364 194.838 81.686 192.051 81.686ZM186.35 66.1587C186.35 68.0641 187.173 69.5881 188.82 70.7314C190.467 71.8109 192.652 72.3503 195.376 72.3503C197.53 72.3503 199.526 72.0967 201.363 71.5883C203.199 71.0167 204.846 70.1914 206.304 69.1119V61.8719C204.72 61.237 203.073 60.7608 201.363 60.4433C199.652 60.1259 197.815 59.9671 195.851 59.9671C192.874 59.9671 190.53 60.5388 188.82 61.6815C187.173 62.761 186.35 64.2534 186.35 66.1587Z" fill="#7D75D8"/>
<path d="M227.559 80.8285V31.1991H240.577V35.2953C244.314 31.9295 248.938 30.2466 254.449 30.2466C258.313 30.2466 261.703 31.1039 264.616 32.8185C267.594 34.4696 269.906 36.7876 271.553 39.7724C273.2 42.6936 274.024 46.1229 274.024 50.0602V80.8285H261.006V51.9653C261.006 48.7266 260.087 46.1864 258.25 44.3447C256.413 42.4396 253.911 41.487 250.744 41.487C248.527 41.487 246.563 41.9315 244.852 42.8206C243.142 43.6461 241.717 44.8528 240.577 46.4404V80.8285H227.559Z" fill="#7D75D8"/>
<path d="M305.359 81.495C300.671 81.495 296.427 80.3523 292.626 78.0657C288.825 75.7796 285.785 72.7316 283.504 68.9215C281.287 65.0476 280.179 60.7291 280.179 55.9661C280.179 51.2032 281.287 46.9167 283.504 43.1063C285.785 39.2325 288.857 36.1843 292.722 33.9616C296.585 31.6754 300.924 30.5323 305.739 30.5323C308.21 30.5323 310.585 30.8816 312.866 31.5802C315.146 32.2152 317.268 33.1678 319.232 34.4379V14.148L332.25 11.957V80.8285H319.422V76.7326C315.368 79.9077 310.68 81.495 305.359 81.495ZM307.449 70.3501C309.857 70.3501 312.042 69.9687 314.006 69.2067C316.033 68.3815 317.775 67.1749 319.232 65.587V46.2498C317.775 44.7892 316.033 43.6461 314.006 42.8205C311.979 41.995 309.793 41.5822 307.449 41.5822C304.726 41.5822 302.255 42.2173 300.038 43.4874C297.884 44.694 296.174 46.4086 294.907 48.6313C293.64 50.7905 293.006 53.2354 293.006 55.9661C293.006 58.6967 293.64 61.142 294.907 63.301C296.174 65.4599 297.884 67.1749 300.038 68.4447C302.255 69.7151 304.726 70.3501 307.449 70.3501Z" fill="#7D75D8"/>
<path d="M340.978 80.8286V31.1992H353.996V36.7242C355.58 34.565 357.48 32.9139 359.698 31.7708C361.914 30.6277 364.417 30.0562 367.204 30.0562C369.611 30.1196 371.417 30.5007 372.62 31.1992V42.6302C371.67 42.1857 370.625 41.8681 369.484 41.6776C368.344 41.4236 367.173 41.2966 365.968 41.2966C363.435 41.2966 361.123 41.9316 359.032 43.2017C356.942 44.4719 355.263 46.2817 353.996 48.6314V80.8286H340.978Z" fill="#7D75D8"/>
<path d="M378.341 80.8285V31.1991H391.358V80.8285H378.341ZM384.802 25.2931C382.775 25.2931 381.033 24.5628 379.576 23.1022C378.119 21.6416 377.391 19.8951 377.391 17.863C377.391 15.7673 378.119 14.0209 379.576 12.6238C381.033 11.1632 382.775 10.4329 384.802 10.4329C386.892 10.4329 388.635 11.1632 390.028 12.6238C391.485 14.0209 392.214 15.7673 392.214 17.863C392.214 19.8951 391.485 21.6416 390.028 23.1022C388.635 24.5628 386.892 25.2931 384.802 25.2931Z" fill="#7D75D8"/>
<path d="M415.887 81.686C412.34 81.686 409.204 81.0505 406.48 79.7807C403.756 78.447 401.634 76.6372 400.114 74.3511C398.593 72.0645 397.833 69.4294 397.833 66.4446C397.833 61.6815 399.607 57.9984 403.155 55.3946C406.765 52.7274 411.706 51.3938 417.978 51.3938C422.286 51.3938 426.34 52.0606 430.14 53.3943V49.7744C430.14 46.9167 429.253 44.7575 427.48 43.2969C425.706 41.8363 423.109 41.106 419.688 41.106C417.597 41.106 415.349 41.4552 412.942 42.1538C410.534 42.7888 407.747 43.8049 404.58 45.202L399.829 35.581C403.756 33.8029 407.494 32.4693 411.041 31.5802C414.652 30.6911 418.263 30.2466 421.874 30.2466C428.525 30.2466 433.688 31.866 437.362 35.1047C441.099 38.28 442.968 42.7888 442.968 48.6313V80.8285H430.14V77.3037C428.113 78.8283 425.928 79.9394 423.584 80.6382C421.24 81.3364 418.674 81.686 415.887 81.686ZM410.186 66.1587C410.186 68.0641 411.009 69.5881 412.656 70.7314C414.303 71.8109 416.489 72.3503 419.213 72.3503C421.366 72.3503 423.362 72.0967 425.199 71.5883C427.036 71.0167 428.683 70.1914 430.14 69.1119V61.8719C428.557 61.237 426.91 60.7608 425.199 60.4433C423.489 60.1259 421.652 59.9671 419.688 59.9671C416.711 59.9671 414.367 60.5388 412.656 61.6815C411.009 62.761 410.186 64.2534 410.186 66.1587Z" fill="#7D75D8"/>
<path fill-rule="evenodd" clip-rule="evenodd" d="M453.465 2.94375L452.663 7.82677C451.586 14.3778 446.464 19.5124 439.93 20.5914L435.059 21.3957L439.93 22.2001C446.464 23.2791 451.586 28.4137 452.663 34.9647L453.465 39.8478L454.267 34.9647C455.343 28.4137 460.465 23.2791 467 22.2001L471.871 21.3957L467 20.5914C460.465 19.5124 455.343 14.3778 454.267 7.82677L453.465 2.94375ZM451.919 7.70401L453.093 0.558105H453.837L455.011 7.70401C456.034 13.9355 460.907 18.8196 467.122 19.846L474.25 21.023V21.7685L467.122 22.9455C460.907 23.9719 456.034 28.856 455.011 35.0875L453.837 42.2334H453.093L451.919 35.0875C450.895 28.856 446.023 23.9719 439.807 22.9455L432.679 21.7685V21.023L439.807 19.846C446.023 18.8196 450.895 13.9355 451.919 7.70401Z" fill="white" stroke="#7D75D8" stroke-width="1.64112"/>
</mask>
<g mask="url(#mask0_309_396)">
<path d="M0 0H475V82H0V0Z" fill="url(#paint0_linear_309_396)"/>
</g>
<defs>
<linearGradient id="paint0_linear_309_396" x1="51.239" y1="41" x2="445.955" y2="-24.674" gradientUnits="userSpaceOnUse">
<stop offset="0.671875" stop-color="#7D75D8"/>
<stop offset="0.90625" stop-color="#C471CB"/>
<stop offset="1" stop-color="#88ADDC"/>
</linearGradient>
</defs>
</svg>
