<svg width="19" height="18" viewBox="0 0 19 18" fill="none" xmlns="http://www.w3.org/2000/svg">
<path fill-rule="evenodd" clip-rule="evenodd" d="M8.74228e-08 1C3.91405e-08 0.447715 0.447715 -3.91405e-08 1 -8.74228e-08L18 -1.57361e-06C18.5523 -1.62189e-06 19 0.447714 19 0.999998C19 1.55228 18.5523 2 18 2L1 2C0.447715 2 1.35705e-07 1.55228 8.74228e-08 1Z" fill="white"/>
<path fill-rule="evenodd" clip-rule="evenodd" d="M8.74228e-08 9C3.91405e-08 8.44772 0.447715 8 1 8L18 8C18.5523 8 19 8.44771 19 9C19 9.55228 18.5523 10 18 10L1 10C0.447715 10 1.35705e-07 9.55228 8.74228e-08 9Z" fill="white"/>
<path fill-rule="evenodd" clip-rule="evenodd" d="M8.74228e-08 17C3.91405e-08 16.4477 0.447715 16 1 16L18 16C18.5523 16 19 16.4477 19 17C19 17.5523 18.5523 18 18 18L1 18C0.447715 18 1.35705e-07 17.5523 8.74228e-08 17Z" fill="white"/>
</svg>
