<svg width="100" height="100" viewBox="0 0 100 100" fill="none" xmlns="http://www.w3.org/2000/svg">
<path d="M0 0H100V100H0V0Z" fill="#7D75D8"/>
<path d="M0 0H100V100H0V0Z" fill="url(#paint0_linear_309_491)"/>
<path d="M33.0757 49.3019C30.9088 49.3019 28.5918 49.6709 26.1256 50.401C23.7752 51.034 21.0841 52.0254 18.0539 53.3702L13.6886 44.3478C17.4627 42.6314 21.055 41.3385 24.4643 40.4662C28.0728 39.5595 31.679 39.1067 35.2838 39.1067C41.9218 39.1067 47.0023 40.7555 50.5939 43.9867L50.5938 43.9868L50.6007 43.9928C54.2435 47.1519 56.0909 51.6492 56.0909 57.56V90.253H44.1333V87.1192V86.105L43.3289 86.7226C41.327 88.2593 39.1734 89.3762 36.8656 90.0784C34.551 90.7821 32.0088 91.137 29.2364 91.137C25.7168 91.137 22.6262 90.494 19.9535 89.2233C17.2759 87.8845 15.2046 86.0766 13.723 83.8023L13.7229 83.8022C12.2445 81.5337 11.5 78.9139 11.5 75.9242C11.5 71.1537 13.2311 67.5125 16.6755 64.9327L16.6768 64.9317C20.2085 62.2685 25.0805 60.9079 31.3485 60.9079C35.6464 60.9079 39.684 61.5867 43.4647 62.941L44.1333 63.1805V62.4703V58.7384C44.1333 55.6861 43.2004 53.3024 41.2682 51.6779L41.2681 51.6778C39.3518 50.0675 36.5946 49.3019 33.0757 49.3019ZM25.6837 80.7516L25.6836 80.7517L25.6947 80.7592C27.4662 81.9442 29.7815 82.5126 32.596 82.5126C34.8108 82.5126 36.8732 82.2463 38.7783 81.7082L38.7861 81.706L38.7938 81.7035C40.7004 81.098 42.4154 80.2218 43.9349 79.0728L44.1333 78.9228V78.674V71.2101V70.8745L43.8228 70.7474C42.1921 70.0799 40.4962 69.5795 38.7355 69.246C36.9739 68.9123 35.0869 68.7464 33.0757 68.7464C30.0111 68.7464 27.5329 69.3459 25.6928 70.5995C23.8948 71.803 22.9778 73.4954 22.9778 75.6295C22.9778 77.7631 23.8936 79.4834 25.6837 80.7516Z" fill="white" stroke="#7D75D8"/>
<path fill-rule="evenodd" clip-rule="evenodd" d="M67.194 10.4594L66.3839 15.4935C65.296 22.2471 60.1222 27.5405 53.5222 28.6529L48.602 29.4821L53.5222 30.3113C60.1222 31.4237 65.296 36.7171 66.3839 43.4707L67.194 48.5048L68.0041 43.4707C69.0909 36.7171 74.2647 31.4237 80.8657 30.3113L85.7859 29.4821L80.8657 28.6529C74.2647 27.5405 69.0909 22.2471 68.0041 15.4935L67.194 10.4594ZM65.6324 15.3669L66.8182 8H67.5697L68.7556 15.3669C69.7889 21.7911 74.7112 26.8263 80.9889 27.8844L88.1889 29.0978V29.8664L80.9889 31.0798C74.7112 32.1379 69.7889 37.1731 68.7556 43.5973L67.5697 50.9642H66.8182L65.6324 43.5973C64.598 37.1731 59.6768 32.1379 53.398 31.0798L46.198 29.8664V29.0978L53.398 27.8844C59.6768 26.8263 64.598 21.7911 65.6324 15.3669Z" fill="white" stroke="white" stroke-width="1.64112"/>
<defs>
<linearGradient id="paint0_linear_309_491" x1="-3.53536" y1="100" x2="119.517" y2="-15.017" gradientUnits="userSpaceOnUse">
<stop offset="0.369792" stop-color="#7D75D8"/>
<stop offset="0.661458" stop-color="#C471CB" stop-opacity="0.53"/>
<stop offset="0.911458" stop-color="#88ADDC"/>
</linearGradient>
</defs>
</svg>
