<svg width="54" height="54" viewBox="0 0 54 54" fill="none" xmlns="http://www.w3.org/2000/svg">
<path d="M25.163 2.10229H15.2561C7.10847 2.10229 2 7.87053 2 16.0367V38.0656C2 46.2318 7.08463 52 15.2561 52H38.6363C46.8104 52 51.8951 46.2318 51.8951 38.0656V27.393" stroke="#7D75D8" stroke-width="3.5" stroke-linecap="round" stroke-linejoin="round"/>
<path fill-rule="evenodd" clip-rule="evenodd" d="M18.1032 23.6488L37.9038 3.84811C40.3706 1.38396 44.3689 1.38396 46.8357 3.84811L50.0603 7.0727C52.5271 9.5395 52.5271 13.5404 50.0603 16.0046L30.1643 35.9006C29.0859 36.979 27.6233 37.5858 26.0971 37.5858H16.1716L16.4207 27.5702C16.4578 26.097 17.0593 24.6927 18.1032 23.6488Z" stroke="#7D75D8" stroke-width="3.5" stroke-linecap="round" stroke-linejoin="round"/>
<path d="M34.8948 6.90735L46.993 19.0055" stroke="#7D75D8" stroke-width="3.5" stroke-linecap="round" stroke-linejoin="round"/>
</svg>
